<svg width="14" height="14" viewBox="0 0 14 14" fill="none" xmlns="http://www.w3.org/2000/svg">
<path fill-rule="evenodd" clip-rule="evenodd" d="M3 4.3C3.71797 4.3 4.3 3.71797 4.3 3C4.3 2.28203 3.71797 1.7 3 1.7C2.28203 1.7 1.7 2.28203 1.7 3C1.7 3.71797 2.28203 4.3 3 4.3ZM3 6C4.65685 6 6 4.65685 6 3C6 1.34315 4.65685 0 3 0C1.34315 0 0 1.34315 0 3C0 4.65685 1.34315 6 3 6ZM13.601 0.398959C13.933 0.730905 13.933 1.2691 13.601 1.60104L1.60104 13.601C1.2691 13.933 0.730905 13.933 0.398959 13.601C0.0670136 13.2691 0.0670136 12.7309 0.398959 12.399L12.399 0.398959C12.7309 0.0670136 13.2691 0.0670136 13.601 0.398959ZM12.3 11C12.3 11.718 11.718 12.3 11 12.3C10.282 12.3 9.7 11.718 9.7 11C9.7 10.282 10.282 9.7 11 9.7C11.718 9.7 12.3 10.282 12.3 11ZM14 11C14 12.6569 12.6569 14 11 14C9.34315 14 8 12.6569 8 11C8 9.34315 9.34315 8 11 8C12.6569 8 14 9.34315 14 11Z" fill="#DCDCDC"/>
</svg>
