<svg width="20" height="20" viewBox="0 0 20 20" fill="none" xmlns="http://www.w3.org/2000/svg">
<path fill-rule="evenodd" clip-rule="evenodd" d="M10 20C15.5228 20 20 15.5228 20 10C20 4.47715 15.5228 0 10 0C4.47715 0 0 4.47715 0 10C0 15.5228 4.47715 20 10 20ZM8.56816 6.11553C9.88566 4.35469 8.78566 1.66553 8.78566 1.66553C8.78566 1.66553 14.6398 6.85302 14.6398 11.6205C14.6398 16.388 10.0957 17.2439 10.0957 17.2439C6.95899 15.8772 5.83566 14.448 5.83566 11.7239C5.83566 9.54544 6.90117 8.21494 7.94703 6.90897C8.15783 6.64574 8.36784 6.38351 8.56816 6.11553Z" fill="#5BD227"/>
<path fill-rule="evenodd" clip-rule="evenodd" d="M10.0823 17.0164C10.0823 17.0164 8.60399 15.9055 8.60399 13.9147C8.60399 11.9239 10.239 10.6947 10.239 10.6947C10.239 10.6947 11.8107 12.2139 11.8107 13.9255C11.8107 15.6372 10.0823 17.0164 10.0823 17.0164Z" fill="#5BD227"/>
</svg>
