<svg width="9" height="16" viewBox="0 0 9 16" fill="none" xmlns="http://www.w3.org/2000/svg">
<path fill-rule="evenodd" clip-rule="evenodd" d="M3.01562 0C3.01562 0 4.14009 2.76196 2.79328 4.57045C2.5885 4.84568 2.37383 5.11502 2.15833 5.38537C1.08921 6.72669 0 8.09321 0 10.3306C0 13.1285 1.14832 14.5963 4.35476 16C4.35476 16 9 15.121 9 10.2245C9 5.32791 3.01562 0 3.01562 0ZM2.82991 12.5807C2.82991 14.6254 4.34113 15.7663 4.34113 15.7663C4.34113 15.7663 6.1079 14.3498 6.1079 12.5918C6.1079 10.8339 4.50128 9.27356 4.50128 9.27356C4.50128 9.27356 2.82991 10.536 2.82991 12.5807Z" fill="#DCDCDC"/>
</svg>
