<svg width="20" height="20" viewBox="0 0 20 20" fill="none" xmlns="http://www.w3.org/2000/svg">
<path fill-rule="evenodd" clip-rule="evenodd" d="M1.94583 4.06104L4.15833 6.27752L4.915 5.52035L2.63 3.23215C4.3918 1.30281 6.84033 0.143007 9.44833 0.00250167V3.56321H10.5183V0C13.1301 0.132786 15.5852 1.2873 17.3542 3.21464L15.0525 5.51951L15.8083 6.27668L18.0408 4.0427C19.3163 5.76382 20.0034 7.85058 20 9.99333C20 15.5203 15.5242 20 9.99999 20C4.47833 20 0 15.5203 0 9.99333C0 7.77185 0.723333 5.72215 1.94583 4.06104ZM11.4875 10.813L11.4942 10.8172L11.51 10.7713L11.6817 10.1493L13.5542 3.47148L9.04416 8.73833L8.62249 9.22698L8.59333 9.26451L8.59999 9.26785C8.39458 9.65101 8.34995 10.1002 8.47596 10.5164C8.60197 10.9325 8.88826 11.2814 9.27166 11.486C9.65459 11.6912 10.1034 11.7356 10.519 11.6094C10.9347 11.4831 11.2831 11.1966 11.4875 10.813ZM18.0292 10.231H13.5925C13.5082 12.1391 11.937 13.6422 10.0283 13.6408C8.12078 13.6408 6.55134 12.138 6.4675 10.231H2.05833C2.05789 12.3498 2.89885 14.3821 4.39611 15.8803C5.89337 17.3786 7.92421 18.2201 10.0417 18.2196C12.1598 18.2212 14.1917 17.3802 15.6899 15.8818C17.1881 14.3834 18.0296 12.3506 18.0292 10.231Z" fill="#FE2A76"/>
</svg>
