<svg width="21" height="20" viewBox="0 0 21 20" fill="none" xmlns="http://www.w3.org/2000/svg">
<path fill-rule="evenodd" clip-rule="evenodd" d="M20.2012 10C20.2012 15.5225 15.7237 20 10.2012 20C4.67867 20 0.201172 15.5225 0.201172 10C0.201172 4.4775 4.67867 0 10.2012 0C15.7237 0 20.2012 4.4775 20.2012 10ZM6.01784 10.0325C4.51079 10.0325 3.28909 11.2542 3.28909 12.7613C3.28909 14.2683 4.51079 15.49 6.01784 15.49C7.52489 15.49 8.74659 14.2683 8.74659 12.7613C8.74659 11.2542 7.52489 10.0325 6.01784 10.0325ZM17.1137 12.7608C17.1137 11.2538 15.892 10.0321 14.3849 10.0321C12.8779 10.0321 11.6562 11.2538 11.6562 12.7608C11.6562 14.2681 12.8781 15.49 14.3853 15.49C15.8926 15.49 17.1145 14.2681 17.1145 12.7608H17.1137ZM6.01784 11.1967C6.88146 11.1976 7.58146 11.8972 7.58284 12.7608C7.58192 13.6248 6.88178 14.3249 6.01784 14.3258C5.15422 14.3245 4.45459 13.6245 4.45367 12.7608C4.45505 11.8975 5.15454 11.198 6.01784 11.1967ZM10.2012 3.48333C9.22613 3.48333 8.32516 4.00351 7.83764 4.84792C7.35013 5.69232 7.35013 6.73268 7.83764 7.57708C8.32516 8.42149 9.22613 8.94167 10.2012 8.94167C11.7084 8.94167 12.9303 7.71978 12.9303 6.2125C12.9303 4.70522 11.7084 3.48333 10.2012 3.48333ZM10.2012 4.6475C11.0648 4.64888 11.7644 5.34888 11.7653 6.2125C11.764 7.0758 11.0645 7.77529 10.2012 7.77667C9.33788 7.77529 8.63838 7.0758 8.63701 6.2125C8.63792 5.34888 9.33755 4.64888 10.2012 4.6475Z" fill="#2A8BFE"/>
</svg>
