<svg width="22" height="12" viewBox="0 0 22 12" fill="none" xmlns="http://www.w3.org/2000/svg">
<path d="M11 1V3.85714M11 1C8.15515 1 5.85535 1.85651 4.18182 2.80373M11 1C13.8449 1 16.1447 1.85651 17.8182 2.80373M8.72727 11H6.88245C6.60916 11 6.34779 10.8882 6.15909 10.6905L1.62151 5.93682C1.26819 5.56668 1.25689 4.99366 1.63353 4.64729C2.16485 4.15868 3.02326 3.45947 4.18182 2.80373M8.72727 11L10.1412 8.62996C10.5291 7.97975 11.4709 7.97975 11.8588 8.62996L13.2727 11M8.72727 11H13.2727M13.2727 11H15.1176C15.3908 11 15.6522 10.8882 15.8409 10.6905L20.3785 5.93682C20.7318 5.56668 20.7431 4.99366 20.3665 4.64729C19.8351 4.15868 18.9767 3.45947 17.8182 2.80373M4.18182 2.80373L6.45455 5.28571M17.8182 2.80373L15.5455 5.28571" stroke="#DCDCDC" stroke-width="1.5" stroke-linecap="round"/>
</svg>
