<svg width="14" height="14" viewBox="0 0 14 14" fill="none" xmlns="http://www.w3.org/2000/svg">
<path fill-rule="evenodd" clip-rule="evenodd" d="M9.5 4C9.5 5.38071 8.38071 6.5 7 6.5C5.61929 6.5 4.5 5.38071 4.5 4C4.5 2.61929 5.61929 1.5 7 1.5C8.38071 1.5 9.5 2.61929 9.5 4ZM9.01808 7.45435C10.2037 6.76019 11 5.47309 11 4C11 1.79086 9.20914 0 7 0C4.79086 0 3 1.79086 3 4C3 5.47309 3.79629 6.76019 4.98192 7.45435C2.9854 7.89178 1.79197 8.97231 1.10688 10.1141C0.67628 10.8318 0.463963 11.5434 0.358315 12.0717C0.305219 12.3371 0.278225 12.5605 0.264459 12.7211C0.257564 12.8015 0.253953 12.8666 0.252064 12.9139C0.251119 12.9375 0.250603 12.9567 0.250324 12.9711L0.250057 12.9892L0.250011 12.9955L0.250002 12.998L0.25 12.9991C0.25 12.9995 0.25 13 1 13H0.25C0.25 13.4142 0.585786 13.75 1 13.75C1.41318 13.75 1.74832 13.4159 1.74999 13.0031L1.74999 13.0026L1.75004 13.0002C1.75013 12.9957 1.75035 12.9868 1.75087 12.9738C1.75191 12.9478 1.75415 12.9055 1.75898 12.8492C1.76865 12.7364 1.78853 12.5691 1.82919 12.3658C1.91104 11.9566 2.07372 11.4182 2.39312 10.8859C3.00283 9.86969 4.25408 8.75 7 8.75C9.74592 8.75 10.9972 9.86969 11.6069 10.8859C11.9263 11.4182 12.089 11.9566 12.1708 12.3658C12.2115 12.5691 12.2313 12.7364 12.241 12.8492C12.2458 12.9055 12.2481 12.9478 12.2491 12.9738C12.2497 12.9868 12.2499 12.9957 12.25 13.0002L12.25 13.0026V13.0031C12.2517 13.4159 12.5868 13.75 13 13.75C13.4142 13.75 13.75 13.4142 13.75 13H13C13.75 13 13.75 12.9995 13.75 12.9991L13.75 12.998L13.75 12.9955L13.7499 12.9892L13.7497 12.9711C13.7494 12.9567 13.7489 12.9375 13.7479 12.9139C13.746 12.8666 13.7424 12.8015 13.7355 12.7211C13.7218 12.5605 13.6948 12.3371 13.6417 12.0717C13.536 11.5434 13.3237 10.8318 12.8931 10.1141C12.208 8.97231 11.0146 7.89178 9.01808 7.45435Z" fill="#DCDCDC"/>
</svg>
