<svg width="20" height="20" viewBox="0 0 20 20" fill="none" xmlns="http://www.w3.org/2000/svg">
<path fill-rule="evenodd" clip-rule="evenodd" d="M10 20C15.5225 20 20 15.5225 20 10C20 4.4775 15.5225 0 10 0C4.4775 0 0 4.4775 0 10C0 15.5225 4.4775 20 10 20ZM13.6055 13.6055C14.6229 12.588 14.6229 10.9384 13.6055 9.92101L11.9935 8.30907L10.3816 6.69712C9.36417 5.67969 7.71458 5.67969 6.69715 6.69712C5.67972 7.71455 5.67972 9.36414 6.69715 10.3816L8.3091 11.9935L9.92104 13.6055C10.9385 14.6229 12.5881 14.6229 13.6055 13.6055ZM10.6119 8.76962L8.76965 10.6118L7.61826 9.46046C7.10955 8.95174 7.10955 8.12695 7.61826 7.61824C8.12698 7.10952 8.95177 7.10952 9.46049 7.61824L10.6119 8.76962Z" fill="#AF52DE"/>
</svg>
