<svg width="20" height="20" viewBox="0 0 20 20" fill="none" xmlns="http://www.w3.org/2000/svg">
<path fill-rule="evenodd" clip-rule="evenodd" d="M20 10C20 15.5225 15.5225 20 10 20C4.4775 20 0 15.5225 0 10C0 4.4775 4.4775 0 10 0C15.5225 0 20 4.4775 20 10ZM9.7575 16.7892C11.9242 16.7892 13.6808 14.8883 13.6808 12.5425C13.6808 10.9792 12.3725 8.1875 9.7575 4.16667C7.14083 8.1875 5.83333 10.9792 5.83333 12.5425C5.83333 14.8883 7.59 16.7892 9.7575 16.7892ZM8.75 14.0217C8.06 14.0217 7.5 13.4158 7.5 12.6683C7.5 12.17 7.91667 11.2808 8.75 10C9.58333 11.2808 10 12.17 10 12.6683C10 13.4158 9.44 14.0217 8.75 14.0217Z" fill="#5AC8FA"/>
</svg>
