<svg width="14" height="22" viewBox="0 0 14 22" fill="none" xmlns="http://www.w3.org/2000/svg">
<path fill-rule="evenodd" clip-rule="evenodd" d="M1.51106 6.7967L2.68284 20.0878C2.72836 20.6041 3.16073 21 3.67898 21H10.321C10.8393 21 11.2716 20.6041 11.3172 20.0878L12.4889 6.7967C12.4889 6.7967 10.5755 8.93956 7 6.7967C3.42449 4.65385 1.51106 6.7967 1.51106 6.7967Z" fill="#5AC8FA"/>
<path d="M1.51106 6.7967C1.51106 6.7967 3.42449 4.65385 7 6.7967C10.5755 8.93956 12.4889 6.7967 12.4889 6.7967M1.51106 6.7967L2.68284 20.0878M1.51106 6.7967L1.09591 2.08782M12.4889 6.7967L12.9041 2.08782M12.4889 6.7967L11.3172 20.0878M2.09204 1H11.908M2.09204 1C1.5051 1 1.04436 1.50314 1.09591 2.08782M2.09204 1V1C1.5051 1 1.04436 1.50314 1.09591 2.08782V2.08782M11.908 1C12.4949 1 12.9556 1.50314 12.9041 2.08782M11.908 1V1C12.4949 1 12.9556 1.50314 12.9041 2.08782V2.08782M11.3172 20.0878C11.2716 20.6041 10.8393 21 10.321 21M11.3172 20.0878V20.0878C11.2716 20.6041 10.8393 21 10.321 21V21M10.321 21H3.67898M3.67898 21C3.16073 21 2.72836 20.6041 2.68284 20.0878M3.67898 21V21C3.16073 21 2.72836 20.6041 2.68284 20.0878V20.0878" stroke="#5AC8FA" stroke-width="1.5"/>
</svg>
